<?xml version="1.0" encoding="UTF-8"?>
<svg width="24px" height="24px" viewBox="0 0 24 24" version="1.1" xmlns="http://www.w3.org/2000/svg" xmlns:xlink="http://www.w3.org/1999/xlink">
    <!-- Generator: Sketch 42 (36781) - http://www.bohemiancoding.com/sketch -->
    <title>Group</title>
    <desc>Created with Sketch.</desc>
    <defs></defs>
    <g id="Website" stroke="none" stroke-width="1" fill="none" fill-rule="evenodd">
        <g id="dash2-copy-2" transform="translate(-539.000000, -362.000000)" fill-rule="nonzero">
            <g id="Group" transform="translate(169.000000, 51.000000)">
                <g id="2615" transform="translate(370.000000, 311.000000)">
                    <g id="Group">
                        <g transform="translate(15.499255, 12.012500)" id="Shape" fill="#EFF6F7">
                            <path d="M3.25881769,2.05375 L4.3715847,1.1625 L6.67660209,1.04625 L8.34575261,2.67375 C8.34575261,0.73625 7.0342772,-0.42625 4.3715847,0.31 C4.21261798,0.34875 3.69597615,0.3875 3.69597615,0.3875 L3.25881769,2.05375"></path>
                            <path d="M7.39195231,2.5575 C7.39195231,4.34 3.06010929,4.84375 1.7088922,5.735 C1.15250869,6.1225 0.198708395,7.8275 0.198708395,7.8275 L7.94833582,3.44875 C7.94833582,3.44875 7.39195231,1.1625 7.39195231,2.5575"></path>
                        </g>
                        <g transform="translate(4.371585, 12.400000)" id="Shape" fill="#D2D8D9">
                            <path d="M14.3864878,2.325 L15.0223547,2.17 C15.0223547,2.17 15.1415797,1.58875 15.6582216,1.12375 C16.3338301,0.5425 18.5593641,0.65875 18.5593641,2.0925 C18.5593641,4.4175 14.1082961,5.115 12.757079,6.00625 C12.2006955,6.39375 11.5648286,7.55625 11.5648286,7.55625 C11.5648286,7.55625 12.0417288,7.63375 12.1609538,7.55625 C14.1877794,5.92875 19.4734228,5.23125 19.4734228,2.20875 C19.4734228,1.12375 17.8440139,-0.27125 15.4992548,0.5425 C15.3402881,0.58125 14.8236463,0.62 14.8236463,0.62 L14.3864878,2.325"></path>
                            <path d="M10.6905117,8.1375 L0.0794833582,8.1375 C0.0794833582,8.1375 0.198708395,9.2225 1.62940884,10.075 C2.14605067,10.385 3.4177844,10.85 5.36512668,10.85 C7.35221063,10.85 8.58420268,10.385 9.10084451,10.075 C10.5712866,9.2225 10.6905117,8.1375 10.6905117,8.1375"></path>
                        </g>
                        <g transform="translate(0.000000, 6.975000)" fill="#EFF6F7">
                            <path d="M19.5131644,3.9525 L0,3.9525 C0,3.9525 0.238450075,8.48625 2.86140089,12.1675 C3.81520119,13.52375 6.12021858,15.46125 9.73671138,15.46125 C13.3929459,15.46125 15.6582216,13.52375 16.6120219,12.1675 C19.2349727,8.48625 19.5131644,3.9525 19.5131644,3.9525" id="Shape"></path>
                            <ellipse id="Oval" cx="9.73671138" cy="3.9525" rx="9.73671138" ry="3.9525"></ellipse>
                        </g>
                        <path d="M9.73671138,8.6025 C14.2275211,8.6025 17.9632389,9.8425 18.8375559,11.50875 C18.9567809,11.27625 19.0362643,11.005 19.0362643,10.7725 C19.0362643,8.7575 14.863388,7.13 9.73671138,7.13 C4.61003477,7.13 0.43715847,8.7575 0.43715847,10.7725 C0.43715847,11.04375 0.516641828,11.27625 0.635866865,11.50875 C1.51018381,9.8425 5.24590164,8.6025 9.73671138,8.6025" id="Shape" fill="#D2D8D9"></path>
                        <path d="M9.73671138,14.415 C14.2275211,14.415 17.9632389,13.175 18.8375559,11.50875 C17.9632389,9.8425 14.2275211,8.6025 9.73671138,8.6025 C5.24590164,8.6025 1.51018381,9.8425 0.635866865,11.50875 C1.51018381,13.175 5.24590164,14.415 9.73671138,14.415" id="Shape" fill="#724E41"></path>
                        <path d="M16.0158967,10.54 C14.6249379,8.99 10.1738698,9.6875 9.77645306,10.4625 C9.22006955,9.64875 4.84848485,9.02875 3.53700944,10.54 C2.70243418,11.50875 4.61003477,12.4 6.55737705,13.05875 C7.7893691,13.52375 6.55737705,14.0275 6.55737705,14.0275 C11.4058619,14.0275 14.7839046,12.36125 14.7839046,12.36125 C15.85693,11.78 16.5722802,11.16 16.0158967,10.54" id="Shape" fill="#8F6A54"></path>
                        <path d="M13.7108793,11.0825 C12.9160457,9.8425 9.93541977,10.34625 9.61748634,10.96625 C9.29955291,10.3075 6.47789369,9.765 5.48435171,10.96625 C4.88822653,11.7025 6.0804769,12.43875 7.31246895,12.98125 C8.06756085,13.36875 7.23298559,13.75625 7.23298559,13.75625 C10.4123199,13.795 12.757079,12.51625 12.757079,12.51625 C13.5519126,12.05125 14.0685544,11.58625 13.7108793,11.0825" id="Shape" fill="#B59267"></path>
                        <path d="M12.3596622,11.50875 C11.8032787,10.695 9.81619473,11.005 9.61748634,11.43125 C9.41877794,11.005 7.51117735,10.6175 6.87531048,11.43125 C6.47789369,11.935 7.27272727,12.43875 8.10730253,12.7875 C8.62394436,13.02 8.06756085,13.29125 8.06756085,13.29125 C10.2136115,13.33 11.763537,12.43875 11.763537,12.43875 C12.2404372,12.1675 12.5583706,11.8575 12.3596622,11.50875" id="Shape" fill="#F9F3D9"></path>
                        <g opacity="0.6" transform="translate(3.974168, 0.000000)" id="Shape" fill="#A6AEB0">
                            <path d="M6.31892697,3.6425 C4.84848485,2.17 5.80228515,0 5.80228515,0 C5.80228515,0 2.70243418,2.8675 4.64977645,4.84375 C6.91505216,7.13 5.80228515,8.525 5.80228515,8.525 C5.80228515,8.525 8.62394436,5.9675 6.31892697,3.6425"></path>
                            <path d="M1.9076006,4.96 C0.834575261,3.91375 1.54992548,2.325 1.54992548,2.325 C1.54992548,2.325 -0.755091903,4.4175 0.715350224,5.85125 C2.38450075,7.5175 1.54992548,8.525 1.54992548,8.525 C1.54992548,8.525 3.65623448,6.665 1.9076006,4.96"></path>
                            <path d="M10.65077,4.96 C9.57774466,3.91375 10.2930949,2.325 10.2930949,2.325 C10.2930949,2.325 7.9880775,4.4175 9.45851962,5.85125 C11.1276701,7.5175 10.2930949,8.525 10.2930949,8.525 C10.2930949,8.525 12.3994039,6.665 10.65077,4.96"></path>
                        </g>
                    </g>
                </g>
            </g>
        </g>
    </g>
</svg>