<?xml version="1.0" encoding="UTF-8"?>
<svg width="35px" height="35px" viewBox="0 0 35 35" version="1.1" xmlns="http://www.w3.org/2000/svg" xmlns:xlink="http://www.w3.org/1999/xlink">
    <!-- Generator: Sketch 41.2 (35397) - http://www.bohemiancoding.com/sketch -->
    <title>1f4b8</title>
    <desc>Created with Sketch.</desc>
    <defs></defs>
    <g id="Website" stroke="none" stroke-width="1" fill="none" fill-rule="evenodd">
        <g id="dash2" transform="translate(-822.000000, -460.000000)">
            <g id="1f4b8" transform="translate(822.000000, 460.000000)">
                <g id="Group">
                    <path d="M33.5368421,10.7431579 C30.0126316,7.56 26.4884211,4.32 22.9642105,1.13684211 C17.7915789,8.98105263 9.03789474,15.9726316 0.738947368,21.0315789 C0.511578947,22.1115789 0.284210526,23.1347368 0,24.1578947 C3.63789474,27.4547368 7.27578947,30.8084211 10.9136842,34.1052632 C19.4968421,29.3873684 28.5915789,22.68 34.1052632,15.0631579 C33.9347368,13.6421053 33.7073684,12.2210526 33.5368421,10.7431579" id="Shape" fill="#699635"></path>
                    <path d="M11.5957895,29.8989474 C8.01473684,26.6021053 4.43368421,23.3052632 0.852631579,20.0652632 C9.77684211,15.0063158 17.28,8.12842105 22.7936842,0 C26.3747368,3.29684211 29.9557895,6.53684211 33.5368421,9.83368421 C28.0231579,17.9621053 20.52,24.84 11.5957895,29.8989474" id="Shape" fill="#83BF4F"></path>
                    <g transform="translate(3.410526, 2.273684)" id="Shape" fill="#699635">
                        <path d="M7.27578947,25.4652632 C4.88842105,23.3052632 2.50105263,21.0884211 0.113684211,18.9284211 C0.284210526,18.8147368 0.397894737,18.7578947 0.568421053,18.6442105 C1.02315789,18.36 1.13684211,17.8484211 0.738947368,17.4505263 C0.625263158,17.3368421 0.511578947,17.2231579 0.397894737,17.1094737 C7.61684211,12.6757895 13.8694737,6.99157895 18.7578947,0.397894737 C18.8715789,0.511578947 18.9852632,0.625263158 19.0989474,0.738947368 C19.4968421,1.08 20.0652632,1.02315789 20.4063158,0.625263158 C20.52,0.511578947 20.5768421,0.341052632 20.6905263,0.227368421 C23.0778947,2.38736842 25.4652632,4.60421053 27.8526316,6.76421053 C27.7389474,6.87789474 27.6821053,7.04842105 27.5684211,7.16210526 C27.2273684,7.61684211 27.2842105,8.24210526 27.6821053,8.64 C27.7957895,8.75368421 27.9094737,8.86736842 28.0231579,8.98105263 C23.1347368,15.5178947 16.8821053,21.2021053 9.66315789,25.6357895 C9.54947368,25.5221053 9.43578947,25.4084211 9.32210526,25.2947368 C8.92421053,24.9536842 8.24210526,24.8968421 7.73052632,25.1810526 C7.56,25.2947368 7.44631579,25.3515789 7.27578947,25.4652632 M1.64842105,18.9852632 C3.58105263,20.7473684 5.51368421,22.5094737 7.50315789,24.3284211 C8.24210526,24.1010526 9.09473684,24.1578947 9.77684211,24.4989474 C16.3705263,20.2926316 22.1115789,15.0631579 26.7157895,8.98105263 C26.3178947,8.35578947 26.2610526,7.56 26.5452632,6.87789474 C24.6126316,5.11578947 22.68,3.35368421 20.6905263,1.53473684 C20.1789474,1.98947368 19.44,2.04631579 18.8147368,1.70526316 C14.2105263,7.84421053 8.46947368,13.0736842 1.87578947,17.28 C2.21684211,17.8484211 2.16,18.5305263 1.64842105,18.9852632"></path>
                        <path d="M6.82105263,17.7915789 C7.44631579,17.5642105 8.12842105,17.6210526 8.58315789,18.0189474 C8.29894737,18.2463158 7.95789474,18.4736842 7.67368421,18.7010526 C7.56,18.5873684 7.27578947,18.5873684 7.16210526,18.7010526 C6.99157895,18.8147368 6.93473684,18.9852632 7.10526316,19.0989474 C7.21894737,19.2126316 7.50315789,19.2126316 7.67368421,19.0989474 C8.35578947,18.6442105 9.32210526,18.5873684 9.83368421,19.0989474 C10.2315789,19.4968421 10.2884211,20.0652632 9.89052632,20.52 C10.0042105,20.6336842 10.1178947,20.6905263 10.2315789,20.8042105 C9.94736842,20.9747368 9.66315789,21.2021053 9.37894737,21.3726316 C9.26526316,21.2589474 9.15157895,21.1452632 9.03789474,21.0884211 C8.41263158,21.2589474 7.73052632,21.2021053 7.33263158,20.8042105 C7.67368421,20.5768421 7.95789474,20.4063158 8.29894737,20.1789474 C8.41263158,20.2926316 8.69684211,20.2926316 8.86736842,20.1789474 C9.03789474,20.0652632 9.03789474,19.8947368 8.92421053,19.7810526 C8.81052632,19.6673684 8.58315789,19.6673684 8.41263158,19.7810526 C8.01473684,20.0652632 7.50315789,20.1789474 7.04842105,20.1221053 C6.70736842,20.0652632 6.42315789,19.9515789 6.19578947,19.7810526 C5.79789474,19.3831579 5.79789474,18.8715789 6.13894737,18.4168421 C6.02526316,18.36 5.96842105,18.2463158 5.85473684,18.1326316 C6.13894737,17.9621053 6.42315789,17.7347368 6.70736842,17.5642105 C6.65052632,17.6210526 6.76421053,17.6778947 6.82105263,17.7915789"></path>
                        <path d="M20.0084211,5.62736842 C20.52,5.28631579 21.1452632,5.28631579 21.5431579,5.68421053 C21.3157895,5.96842105 21.0884211,6.25263158 20.8610526,6.53684211 C20.7473684,6.42315789 20.52,6.42315789 20.4063158,6.59368421 C20.2926316,6.76421053 20.2926316,6.99157895 20.4063158,7.10526316 C20.52,7.21894737 20.7473684,7.21894737 20.8610526,7.04842105 C21.3726316,6.42315789 22.2252632,6.30947368 22.7368421,6.76421053 C23.1347368,7.16210526 23.2484211,7.78736842 23.0210526,8.35578947 C23.1347368,8.46947368 23.2484211,8.52631579 23.3621053,8.64 C23.1347368,8.92421053 22.9642105,9.15157895 22.7368421,9.43578947 C22.6231579,9.32210526 22.5094737,9.20842105 22.3957895,9.15157895 C21.8842105,9.43578947 21.3157895,9.43578947 20.9178947,9.03789474 C21.1452632,8.75368421 21.4294737,8.46947368 21.6568421,8.18526316 C21.7705263,8.29894737 21.9978947,8.29894737 22.1115789,8.12842105 C22.2252632,7.95789474 22.2252632,7.73052632 22.1115789,7.61684211 C21.9978947,7.50315789 21.7705263,7.50315789 21.6568421,7.67368421 C21.3726316,8.01473684 20.9178947,8.24210526 20.52,8.24210526 C20.2357895,8.24210526 19.9515789,8.12842105 19.7242105,7.95789474 C19.3263158,7.56 19.2126316,6.99157895 19.44,6.42315789 C19.3263158,6.36631579 19.2694737,6.25263158 19.1557895,6.13894737 C19.3831579,5.91157895 19.6105263,5.62736842 19.7810526,5.34315789 C19.7810526,5.45684211 19.8947368,5.51368421 20.0084211,5.62736842"></path>
                        <path d="M18.3031579,16.7684211 C16.4842105,18.4168421 13.4147368,18.36 11.6526316,16.7684211 C9.89052632,15.12 10.0042105,12.5621053 11.8231579,10.9136842 C13.6421053,9.26526316 16.4842105,9.09473684 18.2463158,10.7431579 C20.0652632,12.3347368 20.1221053,15.12 18.3031579,16.7684211"></path>
                    </g>
                    <path d="M11.2547368,12.7894737 L21.9978947,22.6231579 C23.2484211,21.6 24.3852632,20.52 25.5221053,19.3831579 L14.8357895,9.54947368 C13.6989474,10.6294737 12.5052632,11.7094737 11.2547368,12.7894737" id="Shape" fill="#FFDD7D"></path>
                    <path d="M22.0547368,26.9431579 C23.2484211,26.0336842 24.4421053,25.0673684 25.5789474,24.1010526 L25.5789474,19.3263158 C24.4421053,20.4631579 23.2484211,21.5431579 22.0547368,22.5663158 L22.0547368,26.9431579" id="Shape" fill="#DBB471"></path>
                    <path d="M5.74105263,12.9031579 C6.36631579,12.6757895 6.87789474,12.3347368 7.38947368,11.9368421 C7.90105263,11.5389474 8.35578947,11.1410526 8.86736842,10.6863158 C9.37894737,10.2884211 9.89052632,9.83368421 10.4589474,9.54947368 C11.0273684,9.20842105 11.7663158,9.03789474 12.3915789,9.15157895 C11.7663158,9.26526316 11.1978947,9.54947368 10.6863158,9.94736842 C10.1747368,10.2884211 9.72,10.7431579 9.20842105,11.1410526 C8.69684211,11.5389474 8.18526316,11.9936842 7.61684211,12.3347368 C7.04842105,12.6757895 6.36631579,12.9031579 5.74105263,12.9031579" id="0" fill="#8D9998"></path>
                    <path d="M21.4863158,17.6778947 C21.4863158,17.6778947 24.2715789,18.4736842 30.7515789,16.7684211 C37.2315789,15.0631579 34.1621053,33.7073684 22.3389474,33.7073684 C21.0315789,33.7073684 20.9747368,32.0589474 24.6126316,29.1031579 C24.6126316,29.1031579 19.4968421,30.2968421 21.7136842,26.4884211 C21.7136842,26.4884211 18.0757895,27.1136842 19.7242105,24.2147368 C19.7242105,24.2147368 20.4631579,22.0547368 19.7810526,19.6105263 C19.8378947,19.6105263 20.2357895,18.36 21.4863158,17.6778947" id="Shape" fill="#E8E8E8"></path>
                    <g transform="translate(18.757895, 18.189474)" id="Shape" fill="#D1D1D1">
                        <path d="M15.0631579,0.397894737 C15.1768421,5.4 11.1978947,13.6989474 3.29684211,13.6989474 L3.18315789,13.6989474 C2.44421053,14.8926316 2.78526316,15.5747368 3.58105263,15.5747368 C12.5621053,15.5178947 16.4842105,4.83157895 15.0631579,0.397894737"></path>
                        <path d="M10.9705263,3.12631579 C9.26526316,9.26526316 2.44421053,9.77684211 2.44421053,9.77684211 C2.16,11.0842105 2.72842105,11.6526316 3.46736842,11.6526316 C5.96842105,11.7094737 10.6294737,7.56 10.9705263,3.12631579"></path>
                        <path d="M6.19578947,3.12631579 C2.16,8.81052632 0.738947368,6.70736842 0.738947368,6.70736842 C-0.284210526,8.98105263 2.38736842,8.98105263 2.84210526,8.46947368 C4.14947368,7.04842105 6.25263158,4.09263158 6.19578947,3.12631579"></path>
                    </g>
                    <g transform="translate(21.031579, 21.031579)" id="Shape" fill="#8D9998">
                        <path d="M0.852631579,11.0273684 C1.53473684,10.1178947 2.38736842,9.37894737 3.24,8.64 C4.09263158,7.90105263 4.94526316,7.16210526 5.79789474,6.36631579 C6.59368421,5.57052632 7.38947368,4.66105263 7.95789474,3.63789474 C8.52631579,2.61473684 8.81052632,1.42105263 8.69684211,0.284210526 C8.58315789,1.42105263 8.18526316,2.50105263 7.56,3.41052632 C6.93473684,4.32 6.19578947,5.17263158 5.4,5.96842105 C4.60421053,6.76421053 3.75157895,7.50315789 2.95578947,8.35578947 C2.10315789,9.09473684 1.36421053,10.0042105 0.852631579,11.0273684"></path>
                        <path d="M0.170526316,6.93473684 C0.397894737,6.30947368 0.738947368,5.79789474 1.13684211,5.28631579 C1.53473684,4.77473684 1.93263158,4.32 2.38736842,3.80842105 C2.78526316,3.29684211 3.24,2.78526316 3.52421053,2.21684211 C3.86526316,1.64842105 4.03578947,0.909473684 3.92210526,0.284210526 C3.80842105,0.909473684 3.52421053,1.47789474 3.12631579,1.98947368 C2.78526316,2.50105263 2.33052632,2.95578947 1.93263158,3.46736842 C1.53473684,3.97894737 1.08,4.49052632 0.738947368,5.05894737 C0.397894737,5.62736842 0.170526316,6.30947368 0.170526316,6.93473684"></path>
                    </g>
                    <path d="M16.0294737,12.6189474 C16.0294737,12.6189474 15.2336842,9.83368421 16.9389474,3.35368421 C18.6442105,-3.12631579 0,-0.0568421053 0,11.7663158 C0,13.0736842 1.64842105,13.1305263 4.60421053,9.49263158 C4.60421053,9.49263158 3.41052632,14.6084211 7.21894737,12.3915789 C7.21894737,12.3915789 6.59368421,16.0294737 9.49263158,14.3810526 C9.49263158,14.3810526 11.6526316,13.6421053 14.0968421,14.3242105 C14.0968421,14.2673684 15.3473684,13.8694737 16.0294737,12.6189474" id="Shape" fill="#E8E8E8"></path>
                    <g id="Shape" fill="#D1D1D1">
                        <path d="M15.12,0.284210526 C10.1178947,0.170526316 1.81894737,4.14947368 1.81894737,12.0505263 L1.81894737,12.1642105 C0.625263158,12.8463158 0,12.5621053 0,11.7663158 C0,2.78526316 10.6863158,-1.13684211 15.12,0.284210526"></path>
                        <path d="M12.3915789,4.37684211 C6.25263158,6.08210526 5.74105263,12.9031579 5.74105263,12.9031579 C4.43368421,13.1873684 3.86526316,12.6189474 3.86526316,11.88 C3.80842105,9.37894737 7.95789474,4.71789474 12.3915789,4.37684211"></path>
                        <path d="M12.3915789,9.15157895 C6.70736842,13.1873684 8.81052632,14.6084211 8.81052632,14.6084211 C6.53684211,15.6315789 6.53684211,12.96 7.04842105,12.5052632 C8.46947368,11.1978947 11.4252632,9.09473684 12.3915789,9.15157895"></path>
                    </g>
                    <path d="M1.64842105,12.2210526 C2.55789474,11.5389474 3.29684211,10.6863158 4.03578947,9.83368421 C4.77473684,8.98105263 5.51368421,8.12842105 6.30947368,7.27578947 C7.10526316,6.48 8.01473684,5.68421053 9.03789474,5.11578947 C10.0610526,4.54736842 11.2547368,4.26315789 12.3915789,4.37684211 C11.2547368,4.49052632 10.1747368,4.88842105 9.26526316,5.51368421 C8.35578947,6.13894737 7.50315789,6.87789474 6.70736842,7.67368421 C5.91157895,8.46947368 5.17263158,9.32210526 4.32,10.1178947 C3.52421053,10.9705263 2.67157895,11.7094737 1.64842105,12.2210526" id="Shape" fill="#8D9998"></path>
                    <path d="M5.74105263,12.9031579 C6.36631579,12.6757895 6.87789474,12.3347368 7.38947368,11.9368421 C7.90105263,11.5389474 8.35578947,11.1410526 8.86736842,10.6863158 C9.37894737,10.2884211 9.89052632,9.83368421 10.4589474,9.54947368 C11.0273684,9.20842105 11.7663158,9.03789474 12.3915789,9.15157895 C11.7663158,9.26526316 11.1978947,9.54947368 10.6863158,9.94736842 C10.1747368,10.2884211 9.72,10.7431579 9.20842105,11.1410526 C8.69684211,11.5389474 8.18526316,11.9936842 7.61684211,12.3347368 C7.04842105,12.6757895 6.36631579,12.9031579 5.74105263,12.9031579" id="0" fill="#8D9998"></path>
                </g>
            </g>
        </g>
    </g>
</svg>