<?xml version="1.0" encoding="UTF-8"?>
<svg width="27px" height="20px" viewBox="0 0 27 20" version="1.1" xmlns="http://www.w3.org/2000/svg" xmlns:xlink="http://www.w3.org/1999/xlink">
    <!-- Generator: Sketch 42 (36781) - http://www.bohemiancoding.com/sketch -->
    <title>Group</title>
    <desc>Created with Sketch.</desc>
    <defs></defs>
    <g id="Website" stroke="none" stroke-width="1" fill="none" fill-rule="evenodd">
        <g id="dash2-copy-2" transform="translate(-1073.000000, -372.000000)">
            <g id="Group" transform="translate(169.000000, 51.000000)">
                <g id="1f4b5" transform="translate(904.000000, 321.000000)">
                    <g id="Group">
                        <polygon id="Shape" fill="#699635" fill-rule="nonzero" points="0 16.0416667 27 16.0416667 27 19.7916667 0 19.7916667"></polygon>
                        <polygon id="Shape" fill="#83BF4F" fill-rule="nonzero" points="0 0.208333333 27 0.208333333 27 16.0416667 0 16.0416667"></polygon>
                        <polygon id="Shape" fill="#94989B" fill-rule="nonzero" points="10.125 16.0416667 16.875 16.0416667 16.875 19.7916667 10.125 19.7916667"></polygon>
                        <polygon id="Shape" fill="#699635" fill-rule="nonzero" points="1.6875 1.875 25.3125 1.875 25.3125 14.375 1.6875 14.375"></polygon>
                        <polygon id="Shape" fill="#83BF4F" fill-rule="nonzero" points="2.953125 3.125 24.046875 3.125 24.046875 13.125 2.953125 13.125"></polygon>
                        <ellipse id="Oval" fill="#699635" fill-rule="nonzero" cx="18.984375" cy="8.125" rx="3.375" ry="3.33333333"></ellipse>
                        <polygon id="Shape" fill="#D0D0D0" fill-rule="nonzero" points="10.125 0.208333333 16.875 0.208333333 16.875 16.0416667 10.125 16.0416667"></polygon>
                        <path d="M4.69641134,5.05738013 L8.92395041,5.05738013 C8.67492572,5.44996017 8.53430213,5.65503625 8.50207541,5.68140357 L7.37268088,5.68140357 C7.52795509,5.8630451 7.63342278,6.0842343 7.68908713,6.34497779 L8.89318869,6.34497779 C8.9078372,6.34790749 8.91516134,6.35376681 8.91516134,6.36255591 C8.64562875,6.76685481 8.50793481,6.96900122 8.50207541,6.96900122 L7.71984884,6.96900122 C7.70227063,7.17701008 7.60266225,7.42749585 7.42102072,7.72046607 C7.18078514,8.01636599 6.95080697,8.2082586 6.73107931,8.29614966 C6.32092101,8.49243971 5.92834681,8.59058326 5.55334494,8.59058326 C5.55334494,8.62866934 6.22569974,9.25497117 7.92199728,11.2383795 L6.80139181,11.2383795 C5.1490398,9.31356521 4.49865744,8.72681377 4.49865744,8.71802466 L4.49865744,8.13355201 L4.5074465,8.11157935 C4.65393161,8.13208726 4.82531661,8.14234107 5.02160666,8.14234107 C5.94739254,8.14234107 6.52307037,7.8420511 6.74865744,7.24146216 C6.78381386,7.1535711 6.80139181,7.06275169 6.80139181,6.96900122 L4.28771994,6.96900122 C4.27600113,6.96900122 4.27014181,6.96314191 4.27014181,6.9514231 C4.54846352,6.5471242 4.69055194,6.34497779 4.69641134,6.34497779 L6.69152853,6.34497779 C6.57727015,6.10474225 6.35608095,5.92456828 6.02795431,5.79566138 C5.79357814,5.71948912 5.58264275,5.68140357 5.39514181,5.68140357 L4.27893088,5.68140357 L4.27893088,5.65943091 C4.54846347,5.25806172 4.68762224,5.05738013 4.69641134,5.05738013 Z" id="`" fill="#FFFFFF"></path>
                    </g>
                </g>
            </g>
        </g>
    </g>
</svg>